<svg id="Icon_ionic-ios-flower" data-name="Icon ionic-ios-flower" xmlns="http://www.w3.org/2000/svg" width="63.41" height="63.364" viewBox="0 0 63.41 63.364">
  <path id="パス_1" data-name="パス 1" d="M54.733,31.142A58.915,58.915,0,0,0,41.585,33.2a6.458,6.458,0,0,0-.564-1.386,57.776,57.776,0,0,0,10.741-7.831c5.591-5.591,7.359-9.69,5.728-11.32a2.1,2.1,0,0,0-1.569-.579c-2.1,0-5.485,2.042-9.751,6.307A58.364,58.364,0,0,0,38.34,29.116a7,7,0,0,0-1.386-.579,57.924,57.924,0,0,0,2.057-13.118c0-7.907-1.645-12.051-3.961-12.051s-3.961,4.144-3.961,12.051a57.791,57.791,0,0,0,2.057,13.118,6.507,6.507,0,0,0-1.386.579A57.666,57.666,0,0,0,23.928,18.39c-4.266-4.266-7.663-6.307-9.751-6.307a2.165,2.165,0,0,0-1.569.579c-1.645,1.645.122,5.728,5.728,11.32a58.285,58.285,0,0,0,10.741,7.831,6.956,6.956,0,0,0-.564,1.386,58.051,58.051,0,0,0-13.148-2.057c-7.892,0-11.99,1.615-11.99,3.931s4.1,3.992,12.021,3.992a58.207,58.207,0,0,0,13.163-2.072,6.386,6.386,0,0,0,.579,1.371A58.07,58.07,0,0,0,18.367,46.21c-5.591,5.591-7.359,9.69-5.728,11.32a2.1,2.1,0,0,0,1.569.579c2.1,0,5.485-2.042,9.751-6.307a58.254,58.254,0,0,0,7.861-10.787,6.821,6.821,0,0,0,1.371.564,58.337,58.337,0,0,0-2.072,13.179c0,7.907,1.645,11.975,3.961,11.975s3.961-4.068,3.961-11.975a58.2,58.2,0,0,0-2.072-13.179,6.667,6.667,0,0,0,1.371-.564A57.565,57.565,0,0,0,46.2,51.8c4.266,4.266,7.663,6.307,9.751,6.307a2.165,2.165,0,0,0,1.569-.579c1.645-1.645-.122-5.728-5.728-11.32a58.58,58.58,0,0,0-10.771-7.846,6.862,6.862,0,0,0,.579-1.371,58.207,58.207,0,0,0,13.163,2.072c7.907,0,12.021-1.645,12.021-3.961C66.754,32.787,62.656,31.142,54.733,31.142Z" transform="translate(-3.375 -3.368)" fill="#222"/>
  <path id="パス_2" data-name="パス 2" d="M24.422,28.886a38.923,38.923,0,0,1-3.778-4.494,39.942,39.942,0,0,1,.5,5.85,43.536,43.536,0,0,1-.244,4.891c1.874,3.321,3.7,4.982,5.18,4.982a1.93,1.93,0,0,0,.716-.137c1.676-.686,2.026-3.55.686-8.273C26.509,30.9,25.489,29.952,24.422,28.886Z" transform="translate(16.774 21.162)" fill="#222"/>
  <path id="パス_3" data-name="パス 3" d="M15.726,15.624a39.734,39.734,0,0,1,3.748,4.449,39.622,39.622,0,0,1-.488-5.82,43.535,43.535,0,0,1,.244-4.891c-1.874-3.321-3.7-4.982-5.18-4.982a1.93,1.93,0,0,0-.716.137c-1.676.686-2.026,3.55-.686,8.273C13.624,13.613,14.66,14.558,15.726,15.624Z" transform="translate(6.487 -2.187)" fill="#222"/>
  <path id="パス_4" data-name="パス 4" d="M15.6,24.436a38.923,38.923,0,0,1,4.494-3.778,39.942,39.942,0,0,1-5.85.5,43.536,43.536,0,0,1-4.891-.244c-3.885,2.194-5.5,4.3-4.845,5.9.4.975,1.539,1.508,3.367,1.508a18.377,18.377,0,0,0,4.906-.823C13.6,26.523,14.531,25.5,15.6,24.436Z" transform="translate(-2.221 16.806)" fill="#222"/>
  <path id="パス_5" data-name="パス 5" d="M28.872,15.719A38.923,38.923,0,0,1,24.377,19.5a39.942,39.942,0,0,1,5.85-.5,43.535,43.535,0,0,1,4.891.244c3.885-2.194,5.5-4.3,4.845-5.9-.4-.975-1.539-1.508-3.367-1.508a18.377,18.377,0,0,0-4.906.823C30.868,13.647,29.938,14.667,28.872,15.719Z" transform="translate(21.131 6.51)" fill="#222"/>
  <path id="パス_6" data-name="パス 6" d="M15.946,28.878a44.933,44.933,0,0,1-3.626,3.291c-1.188,4.3-.838,6.917.747,7.6a1.819,1.819,0,0,0,.747.152c1.569,0,3.535-1.828,5.591-5.515-.107-1.28-.168-2.666-.168-4.159a39.942,39.942,0,0,1,.5-5.85A41.823,41.823,0,0,1,15.946,28.878Z" transform="translate(6.237 21.171)" fill="#222"/>
  <path id="パス_7" data-name="パス 7" d="M24.43,15.541a44.519,44.519,0,0,1,3.611-3.276c1.2-4.327.868-6.978-.731-7.648a1.82,1.82,0,0,0-.747-.152c-1.569,0-3.535,1.828-5.591,5.515.107,1.28.168,2.666.168,4.159a40.723,40.723,0,0,1-.5,5.9A42.042,42.042,0,0,1,24.43,15.541Z" transform="translate(16.766 -2.088)" fill="#222"/>
  <path id="パス_8" data-name="パス 8" d="M9.979,19.415c1.28-.107,2.666-.168,4.159-.168a39.742,39.742,0,0,1,5.835.5,40.052,40.052,0,0,1-4.479-3.778,45.627,45.627,0,0,1-3.306-3.641,17.006,17.006,0,0,0-4.357-.7c-1.737,0-2.834.5-3.23,1.447C3.9,14.738,5.683,17.023,9.979,19.415Z" transform="translate(-2.118 6.272)" fill="#222"/>
  <path id="パス_9" data-name="パス 9" d="M34.387,20.993c-1.28.107-2.666.168-4.159.168a39.942,39.942,0,0,1-5.85-.5,40.516,40.516,0,0,1,4.494,3.778,47.984,47.984,0,0,1,3.291,3.626,16.561,16.561,0,0,0,4.357.716c1.737,0,2.834-.5,3.23-1.447C40.466,25.655,38.683,23.385,34.387,20.993Z" transform="translate(21.131 16.806)" fill="#222"/>
</svg>
